<?xml version="1.0" encoding="UTF-8" standalone="no"?>
<!-- Created with Inkscape (http://www.inkscape.org/) -->

<svg
   width="600mm"
   height="300mm"
   viewBox="0 0 600 300"
   version="1.1"
   id="svg5"
   inkscape:version="1.1.2 (08b2f3d93c, 2022-04-05)"
   sodipodi:docname="huerto.svg"
   xmlns:inkscape="http://www.inkscape.org/namespaces/inkscape"
   xmlns:sodipodi="http://sodipodi.sourceforge.net/DTD/sodipodi-0.dtd"
   xmlns="http://www.w3.org/2000/svg"
   xmlns:svg="http://www.w3.org/2000/svg">
  <sodipodi:namedview
     id="namedview7"
     pagecolor="#ffffff"
     bordercolor="#666666"
     borderopacity="1.0"
     inkscape:pageshadow="2"
     inkscape:pageopacity="0.0"
     inkscape:pagecheckerboard="0"
     inkscape:document-units="mm"
     showgrid="false"
     inkscape:zoom="0.44626389"
     inkscape:cx="1133.8583"
     inkscape:cy="565.80872"
     inkscape:window-width="1920"
     inkscape:window-height="982"
     inkscape:window-x="0"
     inkscape:window-y="27"
     inkscape:window-maximized="1"
     inkscape:current-layer="layer1"
     showguides="false" />
  <defs
     id="defs2">
    <rect
       x="1057.416"
       y="410.82843"
       width="556.87838"
       height="136.26329"
       id="rect16974" />
    <rect
       x="118.15002"
       y="427.87554"
       width="573.65561"
       height="119.86754"
       id="rect4536" />
    <rect
       x="1057.416"
       y="410.82843"
       width="556.87838"
       height="136.26329"
       id="rect24712" />
  </defs>
  <g
     inkscape:label="Capa 1"
     inkscape:groupmode="layer"
     id="layer1">
    <g
       id="g13567"
       transform="translate(52.515951,43.240736)">
      <rect
         style="fill:none;fill-rule:evenodd;stroke:#060000;stroke-width:1.69522;stroke-linecap:square;stroke-miterlimit:4;stroke-dasharray:none;paint-order:stroke fill markers"
         id="rect846"
         width="198.30478"
         height="148.30478"
         x="6.7894506"
         y="9.8479185"
         rx="3.8797491" />
      <path
         style="fill:#c02d02;stroke:none;stroke-width:0.264583"
         d="m 91.632514,27.113898 v 0.26458 l 5.82084,8.20208 -8.46667,2.86735 -5.55625,-1.54443 2.38125,3.43958 c -2.86779,0.91382 -5.58887,3.45853 -7.67188,5.55647 -9.22857,9.2946 -10.91353,23.54083 -4.019,34.66021 7.10105,11.45249 21.2127,16.47481 34.180456,15.5866 12.27826,-0.84058 24.69383,-7.97507 29.66694,-19.55535 6.5106,-15.1601 -3.02525,-36.47753 -20.14194,-39.42293 l 6.08542,-5.02708 -9.26042,1.55707 -6.35,1.6414 -4.65931,-0.29541 -2.22276,-3.43223 -4.759586,-7.67291 -5.02709,3.175 m 4.49792,-0.26459 c 2.36485,4.99981 6.102346,9.07259 7.506226,14.55209 0.23072,0.89955 1.6465,5.39985 -0.36248,5.16837 -1.6338,-0.18828 -1.06706,-3.99264 -1.25783,-5.16837 -0.89165,-5.49873 -4.624646,-9.18377 -7.473416,-13.75834 l 1.5875,-0.79375 m 19.843746,8.73125 v 0.26459 c -1.92723,1.20539 -3.73592,2.86168 -4.99983,4.7625 -1.24169,1.86764 -2.0955,4.27222 -4.52517,4.7625 -0.43471,-5.50675 4.47384,-8.74419 9.525,-9.78959 m -25.135416,6.08542 c 3.04165,1.60274 5.94678,1.61494 9.260416,1.5875 v 3.175 c -2.708536,-0.5103 -8.471216,-1.54493 -9.260416,-4.7625 m 26.193746,13.75833 c -3.09245,-1.93225 -5.60758,-3.4917 -8.99583,-4.88262 -0.88609,-0.3638 -2.39765,-1.0234 -2.22726,-2.22295 0.23098,-1.6275 3.21363,-0.71218 4.07934,-0.33562 3.23215,1.40578 5.75892,4.2318 7.14375,7.44119 m -13.49375,-6.61458 c -0.87894,3.47716 -4.339156,4.72996 -6.587056,7.14772 -1.66265,1.78832 -2.48153,4.10025 -4.52544,5.55228 1.61449,-4.95326 4.69477,-13.50682 11.112496,-12.7 z"
         id="path1310" />
      <text
         xml:space="preserve"
         transform="matrix(0.38295955,0,0,0.54495527,-7.5430099,-133.8041)"
         id="text4534"
         style="font-style:normal;font-weight:normal;font-size:85.3333px;line-height:1.25;font-family:sans-serif;white-space:pre;shape-inside:url(#rect4536);fill:#000000;fill-opacity:1;stroke:none"><tspan
           x="118.15039"
           y="503.37497"
           id="tspan24951">Tomates</tspan></text>
    </g>
    <g
       id="g24900"
       transform="translate(92.014732,44.145444)">
      <rect
         style="fill:none;fill-rule:evenodd;stroke:#060000;stroke-width:1.69522;stroke-linecap:square;stroke-miterlimit:4;stroke-dasharray:none;paint-order:stroke fill markers"
         id="rect846-3"
         width="198.30478"
         height="148.30478"
         x="247.52213"
         y="12.783392"
         rx="3.8797491" />
      <path
         style="fill:#2c2c2c;stroke:none;stroke-width:0.159903"
         d="m 341.80524,36.635033 h -0.16065 c -0.33093,-0.58624 -0.57527,-1.517638 -1.17739,-1.881452 -0.87905,-0.530963 -2.25646,0.02349 -2.99929,0.550556 -2.06963,1.468253 -3.7598,3.675183 -6.10478,4.832451 -1.35411,-3.205195 -3.57234,-1.391395 -4.49815,1.114133 h -0.16064 c -0.26121,-1.389322 -1.42898,-3.572705 -2.8748,-1.582868 -1.68392,2.317235 -2.53872,5.282891 -3.87243,7.790167 -0.48997,-0.935232 -1.47731,-2.015147 -2.5641,-1.204217 -0.37608,0.280759 -0.86428,1.183527 -1.42462,1.012111 -1.19747,-0.36623 -0.99924,-2.478945 -2.59784,-2.478945 -0.98108,0 -1.39154,0.86393 -1.20004,1.71608 0.27293,1.214242 1.20357,2.169055 1.59796,3.342393 0.64082,1.906437 0.38748,4.912839 -0.0766,6.843954 -1.51154,-0.442634 -5.92293,-0.856295 -5.38781,1.909935 0.32563,1.683135 1.99782,2.355433 2.0142,4.297364 -1.29161,-1.208831 -2.42482,-0.695218 -2.36795,1.114133 0.047,1.494209 1.03714,2.694922 1.68567,3.97904 0.19391,0.384056 0.82205,1.229046 0.61577,1.676608 -0.21286,0.461726 -0.90155,-0.299706 -1.08534,-0.437697 -1.38461,-1.040277 -4.90859,-0.809338 -3.56268,1.625996 1.32598,2.399518 4.14037,2.734236 5.57368,4.775008 0.69094,0.983778 0.54781,2.259931 0.98477,3.342235 0.58877,1.457917 1.68536,2.907559 2.65664,4.138201 1.92456,2.438351 4.29668,3.524633 6.58415,5.445392 1.65532,1.389962 3.08959,3.0341 4.81945,4.342566 3.5516,2.686326 8.23321,5.167818 12.36988,6.827874 4.41671,1.772269 9.40965,2.529719 14.13704,1.777199 2.16746,-0.34506 4.14986,-1.40985 6.26527,-1.77752 1.41676,-0.246381 2.87431,0.241135 4.33749,-0.100268 1.26318,-0.29477 2.31638,-1.033755 3.53427,-1.435008 7.91479,-2.607225 15.12693,-7.145874 19.43647,-14.443593 3.0928,-5.23721 3.30597,-10.848931 3.71114,-16.711964 0.28964,-4.189454 0.50652,-8.382565 0.80323,-12.573767 0.10779,-1.52206 0.39487,-3.220797 1.35587,-4.456527 0.61994,-0.797076 2.29984,-1.654803 1.65323,-2.856155 -1.46688,-2.725478 -4.20753,0.756818 -5.27247,1.582867 0.11679,-1.129569 1.78416,-4.754318 -1.12421,-3.417364 -0.38138,0.175238 -0.73803,0.387402 -1.12486,0.552451 -0.35406,-0.904353 -0.6805,-2.375009 -1.61339,-2.860295 -1.30912,-0.68089 -2.94516,1.183687 -3.84864,1.90533 l -1.76713,-2.387428 h -0.16065 l -0.80324,1.114133 h -0.32129 c -0.51054,-1.554529 -1.05675,-3.250078 -2.41599,-4.288614 -0.83585,-0.638554 -1.90256,-0.821587 -2.72459,-1.493568 -1.33579,-1.092011 -2.22963,-2.484244 -3.85571,-3.238574 -1.01819,-0.472325 -3.79756,-1.35478 -4.70025,-0.30075 -0.69753,0.81446 0.0864,2.352457 0.5234,3.114206 -0.95168,-0.243359 -2.27413,0.03089 -3.01569,-0.681056 -0.9393,-0.901712 -0.32546,-2.518522 -1.35795,-3.375245 -0.68405,-0.567636 -1.31185,-0.05695 -2.05228,-0.226946 -0.75232,-0.172704 -1.2492,-0.823825 -2.08843,-0.742617 -0.63119,0.06105 -1.14912,0.662716 -1.76471,0.65186 -0.66252,-0.01168 -0.89931,-0.845656 -1.46496,-1.078397 -1.91444,-0.787546 -1.93468,1.446574 -1.91106,2.587487 -0.98092,-0.53892 -2.13566,-0.90973 -3.05232,-1.531687 -0.57174,-0.387877 -1.16453,-1.079196 -1.92777,-1.028774 -2.202,0.145506 -3.37939,3.066437 -4.17685,4.629566 m 10.60277,-3.97904 c 1.65339,1.528282 0.57914,1.835228 0.40627,3.660716 -0.0563,0.595744 0.25609,1.332658 -0.18185,1.841498 -0.43053,0.500089 -1.28341,0.509956 -1.82849,0.866478 -0.47985,0.313704 -0.97739,1.04553 -1.61114,1.01704 -1.91573,-0.08642 -0.992,-2.92396 -1.98015,-3.833579 -0.69866,-0.64297 -1.40245,-0.116522 -2.19445,-0.188879 -0.60002,-0.05485 -1.22848,-0.407913 -1.76713,-0.657529 l 1.28294,-1.2604 1.47765,-1.199234 4.62681,2.198053 1.76954,-2.444164 m 4.98008,1.43245 c -0.74733,-0.0067 -1.25722,-0.06415 -1.76712,-0.636641 0.80308,-0.225804 1.26735,-0.01334 1.76712,0.636641 m 4.6588,4.615688 c -1.45788,-0.67373 -1.83637,-2.926996 -3.37361,-3.26698 -3.07303,-0.679703 -0.92919,3.358179 -1.61724,4.284502 -0.29993,0.403636 -1.15538,0.146747 -1.59572,0.279327 -0.8344,0.251318 -1.63861,0.993327 -2.19798,1.635545 -0.53223,0.61118 -0.10266,1.866167 -0.78428,2.308642 -1.0974,0.712404 -2.28683,-1.700168 -3.58679,-0.82494 -1.89549,1.276159 0.79826,4.244845 -2.42724,4.019469 -0.002,-1.667058 -1.14767,-1.96644 -1.53515,-3.349236 -0.55536,-1.981884 0.25511,-3.08885 0.6487,-4.927168 0.11936,-0.557702 -0.14089,-1.385818 0.21688,-1.858531 0.30362,-0.401406 0.8593,-0.319591 1.054,0.13147 0.46042,1.067335 0.48484,4.499179 2.82789,3.675519 0.62347,-0.219165 0.91312,-0.848494 1.46093,-1.169042 0.75489,-0.441676 1.49018,-0.0083 1.98433,-0.9416 0.60147,-1.135938 0.12145,-2.667772 1.09016,-3.621343 0.94075,-0.926204 1.60711,-0.0086 2.62627,-0.03768 0.85834,-0.02455 1.58157,-0.969933 2.44169,-0.869118 0.47342,0.0555 0.61416,0.652296 0.71778,1.029759 0.42587,1.55138 1.40422,2.142187 2.04938,3.501429 m 9.31758,-0.954972 v 0.159162 c -1.27827,1.541481 1.46175,2.683306 0.64259,4.456526 h -0.32129 c -0.52194,-0.987758 -1.66335,-1.72006 -2.24762,-0.317526 -0.40307,0.967544 -0.0773,2.160779 -0.32275,3.182439 h -0.32129 c -0.54461,-0.799947 -2.32828,-3.886567 -3.51996,-2.191975 -0.53288,0.758086 -0.24354,1.822558 -0.49625,2.669454 -2.09356,-1.179707 -2.30979,-4.397947 -4.3399,-5.752893 -1.8754,-1.251806 -2.71913,0.93062 -2.14835,2.410501 0.24483,0.63474 0.4924,1.263586 0.70493,1.909943 -1.66255,-0.841493 -1.45884,-2.608977 -3.53426,-1.273296 -0.15261,-0.260386 -0.31567,-0.517433 -0.42636,-0.799788 -0.75279,-1.92076 2.1922,-1.033592 2.83095,-2.233039 0.47181,-0.885729 -1.00936,-3.060834 0.22908,-3.548979 1.18606,-0.467447 2.34786,2.347634 3.31031,2.829257 1.1512,0.576004 1.13788,-0.549745 1.8489,-1.015615 0.4527,-0.29636 1.02782,0.06382 1.51523,-0.109024 1.20823,-0.428306 0.0331,-2.294296 -0.15117,-3.080892 2.7744,-0.871328 4.88322,0.859013 6.74721,2.705745 m -30.52312,8.435566 c 0.31471,-1.205167 1.05514,-3.360693 0.0916,-4.420235 -0.83746,-0.920911 -1.84408,-0.09836 -2.78643,-0.479076 -0.67843,-0.273915 -1.21965,-3.327114 -1.17225,-4.013734 0.0722,-1.044706 2.19156,-2.460927 3.12219,-1.654611 0.54282,0.470463 0.59874,1.497674 1.39443,1.696465 1.04388,0.26071 1.75973,-1.61003 2.79511,-0.609423 1.25883,1.216789 0.0644,2.775456 -0.27005,4.069123 -0.29816,1.153124 0.27808,2.390603 -0.0134,3.485004 -0.25237,0.947803 -2.282,1.758574 -3.16122,1.926487 m 9.15693,27.057472 c -1.88071,-0.731662 -1.45049,-2.190378 -1.65243,-3.819879 -0.17493,-1.411126 -0.62669,-2.782782 -1.41611,-3.97904 -0.50957,-0.772091 -1.98898,-1.774011 -2.0187,-2.708134 -0.0419,-1.323108 1.30639,-2.360521 1.39234,-3.658328 -0.8916,0.809656 -1.25901,2.414322 -2.30145,3.018974 -0.55005,0.319281 -1.30495,-0.007 -1.8754,-0.112522 -1.51025,-0.279334 -5.19102,-0.617074 -5.31231,-2.747289 -0.0433,-0.761908 0.81834,-1.742023 1.17257,-2.387429 1.0855,-1.977739 2.27832,-3.896275 3.3365,-5.888975 -2.06401,2.045068 -2.89552,4.626028 -4.69607,6.807663 -0.64034,0.775752 -1.40261,0.228232 -2.21116,0.503104 -1.27537,0.433401 -1.2765,2.085814 -1.28582,3.193896 l -2.40956,-2.059548 -1.81195,1.787705 -1.40101,-0.152641 -1.47331,0.762864 -1.41852,-0.3987 -1.76713,0.856129 c -1.361,-6.515757 -3.60943,-11.857694 -0.44049,-18.303582 0.71424,-1.453146 1.39234,-3.29576 2.85022,-4.138202 0.21543,0.365597 0.40708,0.738512 0.60371,1.114292 1.52102,2.90661 2.13951,-1.576341 3.57265,-1.763511 1.09755,-0.143245 1.14285,2.114463 2.57085,1.548959 0.98109,-0.388675 3.0716,-3.293213 4.2326,-2.486264 0.94492,0.656863 0.19149,2.560112 1.10542,3.460176 0.78509,0.773206 2.78049,-0.143409 3.10661,0.855653 0.378,1.157896 -1.14366,3.477996 -0.0399,4.308505 1.4611,1.099324 3.64527,-2.648289 4.99278,-1.223799 0.47151,0.498499 0.24788,1.540526 0.16499,2.14407 -0.21238,1.545138 -1.38174,3.621085 -0.5356,5.093173 0.69882,1.215833 2.00793,1.733582 3.35915,1.750141 0.82685,0.01017 2.35991,-0.162508 2.86226,0.673572 0.76034,1.265487 -1.06027,3.250552 -1.08613,4.579396 -0.0264,1.349052 1.28341,2.475281 1.07633,3.819878 -0.22426,1.456486 -1.98786,1.807755 -1.873,3.501555 0.1515,2.232397 1.77132,3.732176 0.62702,6.048138 m 22.00877,15.279512 c 0.0406,-1.950681 -0.0827,-4.556951 0.72758,-6.366461 0.98381,-2.196746 2.76507,-3.530686 3.21409,-6.048145 0.7062,-3.959459 -0.55409,-8.146999 -0.0564,-12.096276 0.26892,-2.132928 2.10737,-3.926995 1.89805,-6.207306 h -0.32129 c -0.3748,1.567109 -1.10751,3.807623 -2.08843,5.093174 -0.67648,-1.148352 -1.21642,-2.380103 -1.94223,-3.501555 -0.68163,-1.052856 -1.65869,-2.013073 -1.71042,-3.342393 -0.0832,-2.137066 1.74689,-3.833407 2.71045,-5.570658 1.04261,-1.879538 1.2635,-3.787092 1.2635,-5.888976 h -0.16065 c -0.38555,1.846111 -0.89305,4.018354 -1.69547,5.729814 -0.99056,2.112555 -2.44331,3.414334 -2.64203,5.888983 -0.95425,-0.557546 -1.28116,-1.73359 -1.67058,-2.705752 -0.90991,-2.271871 -1.77483,-4.565069 -2.66691,-6.843947 h -0.16065 c 0.48902,2.094407 1.25033,4.143613 1.85966,6.207306 0.17913,0.607042 0.76275,1.719736 0.38266,2.320891 -0.38619,0.610387 -1.74769,1.040601 -2.40297,0.789599 -1.40792,-0.539238 -2.66322,-1.585408 -4.01619,-2.255793 -1.76521,-0.874436 -3.67033,-1.341099 -5.46204,-2.127992 2.36088,2.363867 8.60431,2.239399 9.63888,5.888976 l -4.17684,0.14484 -4.6588,-0.463164 c 2.73856,2.433902 6.33258,-0.324528 9.15629,1.287623 1.1059,0.631229 2.63335,2.776888 3.05761,3.964712 0.30363,0.849762 -0.29269,1.933014 -1.2749,1.31181 -1.76986,-1.119544 -1.88375,-4.070714 -4.03114,-4.853794 -2.21806,-0.808856 -2.3771,2.451253 -2.68024,3.701147 -0.11825,0.487827 -0.40725,1.297324 -1.02912,1.312766 -1.3782,0.03451 -1.71154,-2.926666 -3.03802,-3.422776 -2.04344,-0.764131 -2.17726,2.327109 -3.6941,2.327109 -0.85432,0 -0.96726,-1.300828 -1.62399,-1.661172 -0.54363,-0.298268 -1.28662,0.201498 -1.60663,-0.490058 -0.89208,-1.927293 2.16794,-3.957875 0.73769,-5.857786 -1.42624,-1.894816 -5.84486,0.122079 -6.38415,-2.87191 -0.13558,-0.752515 0.6021,-3.207108 1.24727,-3.656261 0.79649,-0.554516 1.72568,-0.02072 2.29903,-1.120977 0.46428,-0.890982 -0.45977,-2.601333 0.41978,-3.226682 1.11505,-0.792945 2.93953,2.37644 4.05604,0.20198 0.12675,-0.246864 0.17253,-0.519987 0.19663,-0.792787 0.0371,-0.420821 0.0151,-0.851192 0.0151,-1.273295 1.53436,1.173819 1.28134,2.294797 3.21297,0.954971 0.21623,0.366547 0.40017,0.76 0.63729,1.113816 0.46797,0.698083 1.92456,1.565987 2.15509,0.152635 0.0827,-0.507566 -1.75251,-4.277149 0.0958,-3.685551 2.1742,0.69586 2.51992,4.514939 4.34392,5.642602 2.00617,1.240343 1.1602,-2.382334 1.99444,-2.626326 1.12149,-0.328191 1.59572,2.045543 2.37037,2.431513 0.58299,0.290625 1.09834,-0.340446 1.32358,-0.801063 0.53656,-1.096307 0.22892,-2.503771 0.574,-3.660082 h 0.16064 c 0.53512,0.909929 2.31462,1.983474 2.47333,0.159003 0.0778,-0.894328 -0.69239,-1.908188 -1.0275,-2.705587 5.02957,0.227764 5.77658,7.534395 6.96264,11.300473 0.94509,3.000831 1.80938,6.081089 1.15812,9.231375 -0.51874,2.509343 -1.92746,4.531966 -2.12457,7.162271 -0.15583,2.079129 0.68404,4.156344 0.88436,6.2073 0.52532,5.377119 -1.23265,13.243993 -6.88055,15.597836 m 7.22916,-45.04273 c 0.21544,0.365756 0.4005,0.745514 0.60998,1.114292 1.51716,2.670412 2.63013,-1.195624 4.34874,-0.822867 1.10767,0.240178 0.87794,2.40095 2.1122,2.788826 0.76565,0.240496 1.59829,-0.548146 2.24667,-0.851991 -0.0966,0.638403 -0.35135,1.155354 -0.58653,1.75078 -0.2768,0.70079 -0.11262,2.388696 1.06607,2.004324 1.85226,-0.604178 1.60262,-3.085987 4.17925,-2.004324 l -1.39298,1.597982 -1.27779,2.699383 -1.02414,9.708854 -3.11368,-3.822261 0.21575,-3.021686 -0.79697,-5.252335 h -0.32129 l 0.32129,7.639757 c -2.08489,-0.580143 -3.10147,-3.700024 -3.53425,-5.570653 h -0.16066 c 0.21672,5.002291 5.26299,6.571623 6.99574,10.822987 0.73979,1.815081 0.16323,3.985086 0.0791,5.888983 -0.27728,6.276694 -1.58014,11.381166 -4.66506,16.871125 h -0.16065 c 0.0141,-1.699845 0.50636,-3.395869 0.47327,-5.093173 -0.026,-1.333773 -0.48114,-2.627759 -0.3372,-3.97904 0.16306,-1.530019 0.98718,-2.860611 0.75906,-4.456519 -0.44435,-3.107792 -3.30276,-5.20204 -3.30485,-8.276404 -0.95425,0.985685 0.33768,2.977753 0.84292,3.97904 1.25771,2.492308 2.91464,5.629705 0.9242,8.276404 l -3.53425,-5.729821 h -0.16064 c 0.80596,3.451741 3.66229,5.981773 4.13042,9.549698 1.21385,9.255087 -8.47306,15.182747 -16.17903,17.666935 0.69834,-2.186248 2.42064,-5.661378 4.03114,-7.315065 1.46576,-1.504874 3.27063,-2.415595 4.56707,-4.14457 1.65354,-2.205504 2.50546,-4.95152 2.92427,-7.639756 0.34363,-2.204706 0.41689,-4.484534 0.002,-6.684785 -0.27567,-1.463172 -1.03473,-2.945924 -0.89449,-4.456526 0.33833,-3.645914 2.83126,-6.901245 2.51494,-10.663826 -0.17285,-2.057482 -0.52001,-4.091727 -1.20823,-6.048143 -0.80548,-2.289854 -1.95139,-4.111145 -1.01288,-6.525625 h 0.32129 m -52.04995,1.750781 c 0.002,3.372157 2.12152,5.477863 3.2989,8.43556 0.72163,1.812533 0.54106,3.983818 1.0386,5.888982 h 0.16064 l -0.14619,-6.207306 0.62814,-5.888977 c -1.06092,0.741852 -1.04711,4.000688 -1.28518,5.252336 h -0.16066 l -2.36633,-4.456525 -1.16792,-3.02407 M 317.0657,78.653718 h -0.16064 c -1.33241,-3.499173 -1.9432,-7.733663 -1.57917,-11.459635 0.18699,-1.914715 1.40037,-3.807623 1.20951,-5.729821 -0.19631,-1.976624 -1.54993,-3.477836 -1.83122,-5.411491 -0.29367,-2.018809 0.39664,-4.034113 -0.0506,-6.048143 -0.33447,-1.505508 -1.75749,-2.741238 -1.60407,-4.297365 1.44149,0.222353 1.54238,2.056691 2.89166,2.481809 1.25611,0.395677 1.69612,-2.178763 2.99946,-0.866477 1.24759,1.256103 0.86381,2.719597 0.85626,4.273651 -0.014,2.868886 0.83472,5.380459 1.58206,8.117242 0.28627,1.04887 1.03698,2.731688 0.774,3.812877 -0.3711,1.526354 -2.61856,0.171574 -3.31337,1.324698 -0.62251,1.033117 1.11394,2.27967 0.89192,3.457146 -0.24724,1.311177 -1.29177,2.589243 -1.81692,3.819878 -0.91763,2.150114 -1.14205,4.227178 -0.84887,6.525631 m 5.14075,-25.943339 c 0.14009,1.698413 0.88775,3.078186 2.57037,3.660716 l -2.24908,-3.660716 h -0.32129 m 37.59164,46.156854 c 1.16549,-3.642569 -3.45121,-4.786777 -3.78809,-7.958073 -0.18923,-1.78102 1.6799,-3.219838 1.26849,-5.093172 -0.56371,-2.566322 -3.39594,-3.647985 -4.48417,-5.888982 -0.63248,-1.302577 -0.34234,-2.634919 -0.65609,-3.97904 -0.19743,-0.846099 -0.94108,-1.413827 -1.12244,-2.22826 -0.20388,-0.91534 0.34169,-1.911052 0.24,-2.864907 -0.13254,-1.244329 -0.93047,-2.288744 -1.06622,-3.501555 -0.16498,-1.473836 1.23828,-2.021514 1.824,-3.18323 0.38346,-0.760158 0.10812,-1.585574 0.0734,-2.387429 0.80388,0.48672 1.16678,2.041248 2.31718,1.901503 1.40375,-0.17046 1.92103,-2.999717 3.4512,-2.417503 1.42977,0.543858 1.67493,4.428036 3.86969,3.351785 1.76055,-0.863132 0.59135,-4.776758 2.57182,-4.863978 2.49133,-0.109824 2.60699,5.666314 5.46139,4.941489 3.60815,-0.916133 -1.40937,-5.490916 -1.79782,-7.051339 -0.41495,-1.66626 1.89485,-1.52031 2.70949,-0.741851 4.14264,3.958192 4.55036,9.137945 4.55036,14.429593 0,2.017847 0.19872,4.251999 -0.39198,6.2073 -0.67167,2.224122 -2.80668,3.493919 -3.26099,5.888983 -0.40355,2.126712 -0.25447,4.243721 -0.82669,6.36646 -1.38496,5.136784 -5.28228,9.780959 -10.94255,9.072206 m -2.08843,-41.859496 0.16066,0.159161 -0.16066,-0.159161 m -43.2146,9.07221 c -1.0635,-2.376758 -1.49563,-4.894059 -3.37361,-6.843948 1.8195,3.985567 4.72963,9.460882 3.37361,14.006218 -1.48214,-0.817614 -2.74033,-1.674859 -4.49815,-1.750774 v 0.159162 c 1.63379,0.462683 3.52061,1.304167 4.53204,2.705904 1.27025,1.760488 1.53949,4.382352 2.42547,6.366303 0.91762,2.054935 2.371,3.976974 3.16331,6.048143 -2.62401,-1.158699 -5.58171,-4.74779 -6.74079,-7.321432 -0.74684,-1.658307 -0.74781,-3.585751 -2.10175,-4.927167 -1.15667,-1.145963 -5.28532,-2.391725 -4.90459,-4.586241 0.11535,-0.665137 1.23812,-0.570434 1.69838,-0.395676 0.91135,0.346173 2.33679,2.562817 3.16942,0.674687 0.33093,-0.750609 -0.38925,-1.739159 -0.72035,-2.3844 -0.90428,-1.76256 -1.80632,-2.901039 -1.64568,-4.934011 0.71666,0.386128 1.8714,1.39123 2.24442,-6.6e-4 0.25318,-0.944623 -0.33576,-2.284283 -0.88164,-3.02327 -0.3772,-0.510595 -1.15362,-1.183686 -0.8352,-1.893233 0.7634,-1.701277 4.24802,-0.712562 5.13302,0.331062 1.70769,2.013873 1.30045,5.662492 -0.0379,7.769471 m 4.98009,-0.795809 c 0.99312,-0.290784 2.0179,0.0026 2.88475,-0.699357 0.7295,-0.590649 1.03023,-1.968032 1.94111,-2.296698 0.66075,-0.238429 1.06462,0.586987 1.69195,0.585554 0.59536,-0.0013 0.87055,-0.699673 1.36839,-0.911044 0.55007,-0.233487 1.04261,0.236832 1.59187,0.194496 0.97674,-0.07496 1.20631,-1.282363 1.60664,-1.966119 0.87039,0.640305 2.09645,3.1818 3.2544,1.428795 0.39938,-0.604818 -0.0493,-2.558845 0.93995,-2.607227 1.14141,-0.0557 2.2171,1.90882 3.03482,2.52621 1.86624,1.409055 4.44432,0.777984 6.42591,2.138493 1.85918,1.276641 2.9336,3.253906 3.27883,5.426775 0.1714,1.079273 0.002,2.158548 0.47278,3.18323 0.69545,1.511084 2.54097,1.782934 3.22485,3.183871 0.87424,1.790253 0.16723,3.7594 1.44791,5.570019 1.19009,1.68266 3.377,2.802997 3.86039,4.934012 0.41752,1.840698 -1.46174,3.173204 -1.29291,4.93401 0.17544,1.82988 2.39976,3.419425 3.33619,4.934007 0.42957,0.694902 1.02348,1.549754 0.5833,2.380583 -0.61496,1.160924 -2.66096,1.546569 -3.82662,1.869994 -4.04031,1.12065 -8.46439,1.16872 -12.53055,0.18526 -9.87118,-2.387105 -19.63424,-10.152607 -21.74113,-20.351999 -0.59649,-2.887504 1.22509,-5.434252 1.1695,-8.276397 -0.0509,-2.602931 -1.87364,-4.100486 -2.72233,-6.366468 m -1.44584,-2.387422 c -0.86187,1.195619 -2.42096,3.280799 -2.40971,4.774849 0.87922,-0.532717 2.98162,-3.849325 2.40971,-4.774849 m 40.8046,2.705745 c 0.0101,1.21902 0.37575,2.445359 0.30635,3.660717 -0.12546,2.193724 -1.71524,5.624933 0.33624,7.321433 -1.33001,-3.535134 1.87846,-7.642938 -0.64259,-10.98215 m -38.39488,2.387429 c 0.49094,1.260874 1.00887,2.600217 0.94718,3.97904 -0.11999,2.679485 -1.57932,5.240231 -1.22205,7.958073 0.66846,5.083624 4.38265,8.794634 7.18274,12.732927 -5.61577,-3.170017 -10.43248,-10.352343 -9.77206,-16.871123 0.27856,-2.750476 1.66271,-5.22098 2.5429,-7.798917 h 0.32129 m 6.58657,0 c 0.54669,3.613443 5.05865,5.235459 6.58657,8.435558 h 0.16065 v -0.795802 h 0.16064 l 0.80325,7.162271 -4.77366,-3.846937 -3.09809,-3.156173 0.96388,1.909937 c -2.41807,-0.569319 -4.02904,-2.811906 -4.65879,-5.093174 h -0.16065 c 0.0916,2.080561 1.11329,4.222558 3.05231,5.192332 0.81787,0.409041 1.79347,0.413344 2.57037,0.879208 1.95638,1.17318 4.2991,3.139937 5.72228,4.91061 1.07105,1.332505 1.0071,3.03394 1.40616,4.615686 0.55938,2.216327 1.39667,4.293068 2.6711,6.207309 h 0.16063 c -0.25799,-1.707015 -1.27779,-3.24197 -1.66029,-4.934015 -0.86493,-3.826087 -1.34334,-7.753076 -1.99492,-11.618795 -0.2193,-1.301145 -0.34106,-4.843927 -1.48551,-5.570659 l 0.32129,3.3424 h -0.16065 c -0.40322,-2.213305 -2.81455,-3.649736 -4.33734,-5.099383 -0.82524,-0.785621 -1.41434,-1.784518 -2.24923,-2.540373 m 45.94534,0.477478 c -0.12419,2.859819 -0.61674,6.630517 -2.74548,8.739569 -1.16727,1.156304 -2.78532,1.620742 -4.00174,2.720066 0.58572,-2.531464 0.82604,-4.742373 0.32129,-7.321433 h -0.16065 l -1.60648,11.618797 h -0.16065 c -0.97255,-4.655952 -4.39822,-6.04957 -7.37534,-9.231369 -1.47668,-1.578406 -2.15124,-3.584801 -3.22742,-5.411497 h -0.16065 c 0.49737,2.380901 1.45724,4.779304 3.21537,6.523242 1.89132,1.876192 4.26793,2.925708 5.74413,5.254717 1.48182,2.337924 2.52699,5.482956 2.25855,8.276403 -0.14234,1.481478 -0.79007,2.84899 -0.93658,4.297361 h 0.16065 c 0.75473,-1.426883 0.68436,-3.713874 1.5427,-4.916817 0.49898,-0.699198 1.58383,-0.941126 2.31286,-1.340142 1.52952,-0.837347 2.49293,-2.008777 2.57036,-3.770222 -0.77207,0.499449 -1.14992,1.55024 -1.78207,2.228108 -1.00614,1.078791 -2.00521,1.452346 -3.35866,1.910093 -0.10185,-2.350812 -0.71746,-5.064042 0.42604,-7.304715 0.32739,-0.641584 1.06605,-0.80202 1.66237,-1.113177 1.22222,-0.637921 2.48797,-1.307037 3.46551,-2.291931 2.26691,-2.284442 2.23943,-5.866855 2.47848,-8.867053 h -0.64259 M 343.733,68.626668 c 0,3.064657 -0.2715,4.991791 -1.44584,7.798918 2.16281,-1.088341 2.88974,-5.939587 1.44584,-7.798918 m -1.92778,2.069105 c -0.002,2.79169 -0.57014,5.758304 -1.80874,8.276403 -1.05915,2.153137 -2.55542,3.977127 -3.49264,6.2073 1.05706,-0.35509 1.76937,-2.118602 2.34161,-3.024069 1.64486,-2.603089 2.76249,-4.882284 3.16572,-7.95808 0.1441,-1.099331 0.33784,-2.488336 -0.20595,-3.501554 m -16.3861,12.573766 c 1.17145,2.689826 3.53635,3.859982 5.94398,5.252326 l -4.17685,0.318324 v 0.477486 l 8.83565,0.477485 v -0.159161 l -7.55046,-3.779449 -3.05232,-2.587011 m 32.7722,0.318317 c 0.62508,2.606275 3.74101,4.975553 6.10462,6.048143 -0.79634,-1.691569 -2.86098,-2.56664 -4.17621,-3.826087 -0.68965,-0.66036 -1.14734,-1.716714 -1.92841,-2.222056 m -12.85184,0.318323 c -0.17013,2.062736 -1.35603,4.293541 -2.64266,5.888823 -1.2333,1.529219 -2.67254,2.616453 -3.14067,4.615849 0.97658,-0.740419 1.53917,-2.112235 2.73101,-2.563461 1.69644,-0.642376 3.84784,-0.05794 5.62268,-0.538605 2.25421,-0.610381 3.56221,-3.054467 4.49815,-5.015177 -1.57211,1.097895 -2.19558,3.063855 -3.85555,4.040632 -1.70111,1.000805 -4.06489,0.547672 -5.94398,0.893371 0.97546,-1.735814 4.35516,-5.197419 2.73102,-7.321432"
         id="path13701"
         sodipodi:nodetypes="cccccccccccscscscscsccsccsccscscscsssccccccccccsssccssssccsscccccccscccccccccscccsscssccssscssscccccscccccsccccsccccccscccccsscccsccccssccccccccccccccccsssscssscsccccscccccsccccccccccsccccccccscccssccssscsscccscscccccscssscccccccsccccccccccccscccssccccccccccccccscccccccccccccccsscccscccsscccccccscscscscccccccccsccccccccccccsscsscccccsscccccsccccccscccccssscccssccccccccccccccccccccccccccssscccsscccsccccccccccccssccsccccscccccccccccscccccccccccsccsccccccc" />
      <text
         xml:space="preserve"
         transform="matrix(0.37679256,0,0,0.38601083,-116.74521,-53.662099)"
         id="text16972"
         style="font-style:normal;font-weight:normal;font-size:85.3333px;line-height:1.25;font-family:sans-serif;white-space:pre;shape-inside:url(#rect16974);fill:#000000;fill-opacity:1;stroke:none"><tspan
           x="1057.416"
           y="486.32809"
           id="tspan24953">Lechuga</tspan></text>
    </g>
  </g>
</svg>
